<svg width="1440" height="63" viewBox="0 0 1440 63" fill="none" xmlns="http://www.w3.org/2000/svg">
<mask id="mask0_1902_250" style="mask-type:alpha" maskUnits="userSpaceOnUse" x="67" y="0" width="49" height="63">
<rect x="95.7383" width="23" height="59" transform="rotate(28.441 95.7383 0)" fill="#039BE5"/>
</mask>
<g mask="url(#mask0_1902_250)">
<rect x="66.3008" y="10.9165" width="50" height="35" fill="#00ACFF"/>
</g>
<mask id="mask1_1902_250" style="mask-type:alpha" maskUnits="userSpaceOnUse" x="115" y="0" width="50" height="63">
<rect x="144.061" width="23" height="59" transform="rotate(28.441 144.061 0)" fill="#039BE5"/>
</mask>
<g mask="url(#mask1_1902_250)">
<rect x="114.623" y="10.9165" width="50" height="35" fill="#00ACFF"/>
</g>
<mask id="mask2_1902_250" style="mask-type:alpha" maskUnits="userSpaceOnUse" x="164" y="0" width="49" height="63">
<rect x="192.385" width="23" height="59" transform="rotate(28.441 192.385 0)" fill="#039BE5"/>
</mask>
<g mask="url(#mask2_1902_250)">
<rect x="162.947" y="10.9165" width="50" height="35" fill="#00ACFF"/>
</g>
<mask id="mask3_1902_250" style="mask-type:alpha" maskUnits="userSpaceOnUse" x="212" y="0" width="49" height="63">
<rect x="240.707" width="23" height="59" transform="rotate(28.441 240.707 0)" fill="#039BE5"/>
</mask>
<g mask="url(#mask3_1902_250)">
<rect x="211.27" y="10.9165" width="50" height="35" fill="#00ACFF"/>
</g>
<mask id="mask4_1902_250" style="mask-type:alpha" maskUnits="userSpaceOnUse" x="260" y="0" width="50" height="63">
<rect x="289.031" width="23" height="59" transform="rotate(28.441 289.031 0)" fill="#039BE5"/>
</mask>
<g mask="url(#mask4_1902_250)">
<rect x="259.594" y="10.9165" width="50" height="35" fill="#00ACFF"/>
</g>
<mask id="mask5_1902_250" style="mask-type:alpha" maskUnits="userSpaceOnUse" x="309" y="0" width="49" height="63">
<rect x="337.354" width="23" height="59" transform="rotate(28.441 337.354 0)" fill="#039BE5"/>
</mask>
<g mask="url(#mask5_1902_250)">
<rect x="307.916" y="10.9165" width="50" height="35" fill="#00ACFF"/>
</g>
<mask id="mask6_1902_250" style="mask-type:alpha" maskUnits="userSpaceOnUse" x="357" y="0" width="49" height="63">
<rect x="385.678" width="23" height="59" transform="rotate(28.441 385.678 0)" fill="#039BE5"/>
</mask>
<g mask="url(#mask6_1902_250)">
<rect x="356.24" y="10.9165" width="50" height="35" fill="#00ACFF"/>
</g>
<mask id="mask7_1902_250" style="mask-type:alpha" maskUnits="userSpaceOnUse" x="405" y="0" width="50" height="63">
<rect x="434" width="23" height="59" transform="rotate(28.441 434 0)" fill="#039BE5"/>
</mask>
<g mask="url(#mask7_1902_250)">
<rect x="404.562" y="10.9165" width="50" height="35" fill="#00ACFF"/>
</g>
<mask id="mask8_1902_250" style="mask-type:alpha" maskUnits="userSpaceOnUse" x="454" y="0" width="49" height="63">
<rect x="482.322" width="23" height="59" transform="rotate(28.441 482.322 0)" fill="#039BE5"/>
</mask>
<g mask="url(#mask8_1902_250)">
<rect x="452.885" y="10.9165" width="50" height="35" fill="#00ACFF"/>
</g>
<mask id="mask9_1902_250" style="mask-type:alpha" maskUnits="userSpaceOnUse" x="502" y="0" width="49" height="63">
<rect x="530.646" width="23" height="59" transform="rotate(28.441 530.646 0)" fill="#039BE5"/>
</mask>
<g mask="url(#mask9_1902_250)">
<rect x="501.209" y="10.9165" width="50" height="35" fill="#00ACFF"/>
</g>
<mask id="mask10_1902_250" style="mask-type:alpha" maskUnits="userSpaceOnUse" x="550" y="0" width="50" height="63">
<rect x="578.969" width="23" height="59" transform="rotate(28.441 578.969 0)" fill="#039BE5"/>
</mask>
<g mask="url(#mask10_1902_250)">
<rect x="549.531" y="10.9165" width="50" height="35" fill="#00ACFF"/>
</g>
<mask id="mask11_1902_250" style="mask-type:alpha" maskUnits="userSpaceOnUse" x="599" y="0" width="49" height="63">
<rect x="627.293" width="23" height="59" transform="rotate(28.441 627.293 0)" fill="#039BE5"/>
</mask>
<g mask="url(#mask11_1902_250)">
<rect x="597.855" y="10.9165" width="50" height="35" fill="#00ACFF"/>
</g>
<mask id="mask12_1902_250" style="mask-type:alpha" maskUnits="userSpaceOnUse" x="647" y="0" width="49" height="63">
<rect x="675.615" width="23" height="59" transform="rotate(28.441 675.615 0)" fill="#039BE5"/>
</mask>
<g mask="url(#mask12_1902_250)">
<rect x="646.178" y="10.9165" width="50" height="35" fill="#00ACFF"/>
</g>
<mask id="mask13_1902_250" style="mask-type:alpha" maskUnits="userSpaceOnUse" x="695" y="0" width="50" height="63">
<rect x="723.938" width="23" height="59" transform="rotate(28.441 723.938 0)" fill="#039BE5"/>
</mask>
<g mask="url(#mask13_1902_250)">
<rect x="694.5" y="10.9165" width="50" height="35" fill="#00ACFF"/>
</g>
<mask id="mask14_1902_250" style="mask-type:alpha" maskUnits="userSpaceOnUse" x="744" y="0" width="49" height="63">
<rect x="772.262" width="23" height="59" transform="rotate(28.441 772.262 0)" fill="#039BE5"/>
</mask>
<g mask="url(#mask14_1902_250)">
<rect x="742.824" y="10.9165" width="50" height="35" fill="#00ACFF"/>
</g>
<mask id="mask15_1902_250" style="mask-type:alpha" maskUnits="userSpaceOnUse" x="792" y="0" width="49" height="63">
<rect x="820.584" width="23" height="59" transform="rotate(28.441 820.584 0)" fill="#039BE5"/>
</mask>
<g mask="url(#mask15_1902_250)">
<rect x="791.146" y="10.9165" width="50" height="35" fill="#00ACFF"/>
</g>
<mask id="mask16_1902_250" style="mask-type:alpha" maskUnits="userSpaceOnUse" x="840" y="0" width="50" height="63">
<rect x="868.908" width="23" height="59" transform="rotate(28.441 868.908 0)" fill="#039BE5"/>
</mask>
<g mask="url(#mask16_1902_250)">
<rect x="839.471" y="10.9165" width="50" height="35" fill="#00ACFF"/>
</g>
<mask id="mask17_1902_250" style="mask-type:alpha" maskUnits="userSpaceOnUse" x="889" y="0" width="49" height="63">
<rect x="917.23" width="23" height="59" transform="rotate(28.441 917.23 0)" fill="#039BE5"/>
</mask>
<g mask="url(#mask17_1902_250)">
<rect x="887.793" y="10.9165" width="50" height="35" fill="#00ACFF"/>
</g>
<mask id="mask18_1902_250" style="mask-type:alpha" maskUnits="userSpaceOnUse" x="937" y="0" width="49" height="63">
<rect x="965.553" width="23" height="59" transform="rotate(28.441 965.553 0)" fill="#039BE5"/>
</mask>
<g mask="url(#mask18_1902_250)">
<rect x="936.115" y="10.9165" width="50" height="35" fill="#00ACFF"/>
</g>
<mask id="mask19_1902_250" style="mask-type:alpha" maskUnits="userSpaceOnUse" x="985" y="0" width="50" height="63">
<rect x="1013.88" width="23" height="59" transform="rotate(28.441 1013.88 0)" fill="#039BE5"/>
</mask>
<g mask="url(#mask19_1902_250)">
<rect x="984.439" y="10.9165" width="50" height="35" fill="#00ACFF"/>
</g>
<mask id="mask20_1902_250" style="mask-type:alpha" maskUnits="userSpaceOnUse" x="1034" y="0" width="49" height="63">
<rect x="1062.2" width="23" height="59" transform="rotate(28.441 1062.2 0)" fill="#039BE5"/>
</mask>
<g mask="url(#mask20_1902_250)">
<rect x="1032.76" y="10.9165" width="50" height="35" fill="#00ACFF"/>
</g>
<mask id="mask21_1902_250" style="mask-type:alpha" maskUnits="userSpaceOnUse" x="1082" y="0" width="49" height="63">
<rect x="1110.52" width="23" height="59" transform="rotate(28.441 1110.52 0)" fill="#039BE5"/>
</mask>
<g mask="url(#mask21_1902_250)">
<rect x="1081.09" y="10.9165" width="50" height="35" fill="#00ACFF"/>
</g>
<mask id="mask22_1902_250" style="mask-type:alpha" maskUnits="userSpaceOnUse" x="1130" y="0" width="50" height="63">
<rect x="1158.85" width="23" height="59" transform="rotate(28.441 1158.85 0)" fill="#039BE5"/>
</mask>
<g mask="url(#mask22_1902_250)">
<rect x="1129.41" y="10.9165" width="50" height="35" fill="#00ACFF"/>
</g>
<mask id="mask23_1902_250" style="mask-type:alpha" maskUnits="userSpaceOnUse" x="1179" y="0" width="49" height="63">
<rect x="1207.17" width="23" height="59" transform="rotate(28.441 1207.17 0)" fill="#039BE5"/>
</mask>
<g mask="url(#mask23_1902_250)">
<rect x="1177.73" y="10.9165" width="50" height="35" fill="#00ACFF"/>
</g>
<mask id="mask24_1902_250" style="mask-type:alpha" maskUnits="userSpaceOnUse" x="1227" y="0" width="49" height="63">
<rect x="1255.49" width="23" height="59" transform="rotate(28.441 1255.49 0)" fill="#039BE5"/>
</mask>
<g mask="url(#mask24_1902_250)">
<rect x="1226.05" y="10.9165" width="50" height="35" fill="#00ACFF"/>
</g>
<mask id="mask25_1902_250" style="mask-type:alpha" maskUnits="userSpaceOnUse" x="1275" y="0" width="50" height="63">
<rect x="1303.81" width="23" height="59" transform="rotate(28.441 1303.81 0)" fill="#039BE5"/>
</mask>
<g mask="url(#mask25_1902_250)">
<rect x="1274.38" y="10.9165" width="50" height="35" fill="#00ACFF"/>
</g>
<mask id="mask26_1902_250" style="mask-type:alpha" maskUnits="userSpaceOnUse" x="1324" y="0" width="49" height="63">
<rect x="1352.14" width="23" height="59" transform="rotate(28.441 1352.14 0)" fill="#039BE5"/>
</mask>
<g mask="url(#mask26_1902_250)">
<rect x="1322.7" y="10.9165" width="50" height="35" fill="#00ACFF"/>
</g>
</svg>
